<svg width="778" height="778" viewBox="0 0 778 778" fill="none" xmlns="http://www.w3.org/2000/svg">
<path fill-rule="evenodd" clip-rule="evenodd" d="M389.409 771.909C600.658 771.909 771.909 600.658 771.909 389.409C771.909 178.16 600.658 6.90869 389.409 6.90869C178.16 6.90869 6.90869 178.16 6.90869 389.409C6.90869 600.658 178.16 771.909 389.409 771.909ZM389.409 751.909C589.612 751.909 751.909 589.612 751.909 389.409C751.909 189.205 589.612 26.9087 389.409 26.9087C189.205 26.9087 26.9087 189.205 26.9087 389.409C26.9087 589.612 189.205 751.909 389.409 751.909Z" fill="white"/>
<path fill-rule="evenodd" clip-rule="evenodd" d="M194.454 583.363C301.849 690.757 475.969 690.757 583.363 583.363C690.757 475.969 690.757 301.849 583.363 194.454C475.969 87.0601 301.849 87.0601 194.454 194.454C87.0601 301.849 87.0601 475.969 194.454 583.363ZM539.522 238.295C493.441 192.213 418.727 192.213 372.645 238.295L237.588 373.352C191.506 419.434 191.506 494.148 237.588 540.23C283.67 586.311 358.383 586.311 404.465 540.23L539.522 405.172C585.604 359.09 585.604 284.377 539.522 238.295Z" fill="white"/>
<path d="M382.782 448.399L350.079 481.101C335.696 495.484 312.332 495.484 297.985 481.101L297.198 480.314C282.814 465.931 282.814 442.567 297.198 428.219L345.392 380.025C359.775 365.641 383.139 365.641 397.487 380.025L398.274 380.812C404.356 386.894 407.827 394.551 408.793 402.494C415.52 401.922 422.103 399.059 427.255 393.907L439.599 381.563C436.093 372.225 430.618 363.495 423.141 355.981L422.353 355.194C394.302 327.143 348.612 327.143 320.561 355.194L272.367 403.353C244.316 431.404 244.316 477.094 272.367 505.145L273.154 505.932C301.205 533.983 346.895 533.983 374.946 505.932L423.141 457.737C426.253 454.624 429.008 451.297 431.441 447.791C415.698 453.086 398.632 453.265 382.782 448.399Z" fill="white"/>
<path d="M505.29 273.797L504.503 273.009C476.452 244.958 430.762 244.958 402.711 273.009L354.552 321.204C351.44 324.317 348.685 327.644 346.252 331.151C361.994 325.891 379.061 325.712 394.876 330.578L427.578 297.876C441.961 283.493 465.325 283.493 479.672 297.876L480.459 298.663C494.843 313.046 494.843 336.41 480.459 350.758L432.265 398.917C417.882 413.3 394.518 413.3 380.17 398.917L379.383 398.129C373.301 392.047 369.83 384.39 368.864 376.447C362.138 377.02 355.554 379.882 350.402 385.034L338.058 397.378C341.564 406.716 347.039 415.447 354.517 422.96L355.304 423.747C383.355 451.798 429.045 451.798 457.096 423.747L505.29 375.553C533.341 347.502 533.341 301.847 505.29 273.797Z" fill="white"/>
</svg>
