<svg width="955" height="300" viewBox="0 0 955 300" fill="none" xmlns="http://www.w3.org/2000/svg">
<path fill-rule="evenodd" clip-rule="evenodd" d="M150.193 297.721C231.671 297.721 297.721 231.67 297.721 150.193C297.721 68.7152 231.671 2.66455 150.193 2.66455C68.7157 2.66455 2.66504 68.7152 2.66504 150.193C2.66504 231.67 68.7157 297.721 150.193 297.721ZM150.193 290.007C227.41 290.007 290.007 227.41 290.007 150.193C290.007 72.9755 227.41 10.3785 150.193 10.3785C72.9757 10.3785 10.3787 72.9755 10.3787 150.193C10.3787 227.41 72.9757 290.007 150.193 290.007Z" fill="white"/>
<path fill-rule="evenodd" clip-rule="evenodd" d="M75 225C116.421 266.421 183.579 266.421 225 225C266.421 183.579 266.421 116.421 225 75C183.579 33.5786 116.421 33.5786 75 75C33.5787 116.421 33.5786 183.579 75 225ZM208.091 91.9091C190.317 74.1356 161.501 74.1356 143.727 91.9091L91.6364 144C73.8629 161.774 73.8629 190.59 91.6364 208.364C109.41 226.137 138.227 226.137 156 208.364L208.091 156.273C225.864 138.499 225.864 109.683 208.091 91.9091Z" fill="white"/>
<path d="M147.636 172.945L135.023 185.558C129.476 191.106 120.464 191.106 114.931 185.558L114.627 185.255C109.079 179.707 109.079 170.696 114.627 165.162L133.215 146.573C138.763 141.026 147.774 141.026 153.308 146.573L153.612 146.877C155.958 149.223 157.296 152.176 157.669 155.24C160.263 155.019 162.802 153.915 164.789 151.928L169.55 147.167C168.198 143.565 166.087 140.198 163.202 137.3L162.899 136.996C152.08 126.177 134.457 126.177 123.638 136.996L105.05 155.571C94.2308 166.39 94.2308 184.013 105.05 194.832L105.353 195.135C116.173 205.954 133.795 205.954 144.614 195.135L163.202 176.547C164.403 175.346 165.466 174.063 166.404 172.71C160.332 174.753 153.75 174.822 147.636 172.945Z" fill="white"/>
<path d="M194.888 105.602L194.584 105.298C183.765 94.4791 166.143 94.4791 155.324 105.298L136.749 123.887C135.548 125.087 134.486 126.371 133.547 127.723C139.619 125.694 146.202 125.625 152.301 127.502L164.914 114.889C170.462 109.342 179.473 109.342 185.007 114.889L185.311 115.193C190.858 120.74 190.858 129.752 185.311 135.285L166.722 153.86C161.175 159.407 152.163 159.407 146.63 153.86L146.326 153.556C143.98 151.21 142.641 148.257 142.269 145.194C139.675 145.414 137.135 146.518 135.148 148.506L130.387 153.266C131.74 156.868 133.851 160.235 136.735 163.133L137.039 163.437C147.858 174.256 165.48 174.256 176.299 163.437L194.888 144.849C205.707 134.029 205.707 116.421 194.888 105.602Z" fill="white"/>
<path d="M380.716 109.218H382.625C385.245 109.218 388.259 109.555 391.666 110.229C395.072 110.865 397.749 111.24 399.695 111.352C401.642 111.464 403.177 111.839 404.3 112.475C406.471 113.71 407.557 116.911 407.557 122.077C407.557 127.243 406.583 129.826 404.637 129.826C404 129.826 402.428 128.404 399.92 125.559C397.412 122.676 395.016 120.617 392.732 119.382C388.689 117.211 384.16 116.125 379.144 116.125C376.261 116.125 373.36 116.911 370.44 118.483C361.643 123.163 357.244 133.345 357.244 149.03C357.282 158.763 359.546 166.625 364.039 172.614C368.531 178.604 374.782 181.599 382.793 181.599C389.644 181.599 395.446 179.334 400.201 174.804C403.158 171.997 405.049 170.593 405.872 170.593C407.444 170.593 408.23 171.735 408.23 174.018C408.23 175.179 407.5 176.994 406.041 179.465C404.581 181.936 402.952 183.676 401.155 184.687C396.102 187.495 389.532 188.898 381.446 188.898H379.48C374.951 188.898 370.365 188.075 365.723 186.428C356.327 183.096 349.738 176.507 345.958 166.662C344.011 161.534 343.038 155.937 343.038 149.873C343.038 143.771 344.011 138.174 345.958 133.083C349.888 122.751 356.552 115.732 365.948 112.026C370.702 110.154 375.625 109.218 380.716 109.218ZM419.686 184.912C419.686 184.238 420.49 183.021 422.1 181.262C423.71 179.465 424.702 177.668 425.076 175.871C425.488 174.074 425.694 164.603 425.694 147.458C425.694 130.313 425.301 119.925 424.515 116.293C424.14 114.534 423.354 113.243 422.156 112.419C419.985 110.884 418.899 110.061 418.899 109.948C418.899 108.563 419.629 107.59 421.089 107.028C423.86 105.943 427.098 105.4 430.804 105.4H432.657C434.379 105.4 435.595 106.092 436.307 107.478C437.055 108.863 437.43 111.914 437.43 116.63L437.374 118.708C437.336 120.093 437.317 121.478 437.317 122.863L437.205 127.019C437.205 128.404 437.205 129.789 437.205 131.174C437.205 136.078 438.066 138.53 439.788 138.53C439.975 138.492 440.93 138.099 442.652 137.351C447.855 135.03 452.216 133.869 455.735 133.869C462.324 133.869 466.947 136.508 469.605 141.787C471.364 145.38 472.244 154.215 472.244 168.291C472.244 173.719 472.431 177.106 472.806 178.454C473.217 179.764 474.284 181.131 476.006 182.553C477.766 183.976 478.646 184.874 478.646 185.249C478.646 186.409 477.878 187.195 476.343 187.607C474.846 188.019 470.99 188.225 464.776 188.225H462.811C458.73 188.225 456.69 187.401 456.69 185.754C456.69 185.38 457.177 184.444 458.15 182.946C459.123 181.411 459.76 179.689 460.059 177.78C460.359 175.871 460.508 170.874 460.508 162.788C460.508 154.702 460.134 149.611 459.385 147.514C456.802 144.145 453.938 142.086 450.794 141.337C446.489 141.337 443.045 142.872 440.462 145.942C438.553 148.188 437.598 153.317 437.598 161.328C437.598 169.301 437.785 174.392 438.16 176.601C438.534 178.772 439.339 180.756 440.574 182.553C441.847 184.313 442.483 185.398 442.483 185.81C442.483 187.158 438.684 187.832 431.084 187.832C423.485 187.832 419.686 186.858 419.686 184.912ZM517.615 162.001H516.661C511.757 162.001 507.658 163.106 504.363 165.314C501.106 167.486 499.478 170.2 499.478 173.457V174.58C499.478 176.489 500.058 178.211 501.219 179.746C502.417 181.243 503.951 181.992 505.823 181.992L506.497 182.104H508.182C512.075 182.104 515.257 180.513 517.728 177.331C518.813 175.946 519.356 173.101 519.356 168.796C519.356 168.459 519.356 168.122 519.356 167.785L519.412 166.438V165.09C519.412 163.031 518.813 162.001 517.615 162.001ZM490.325 143.864C490.325 141.094 492.515 138.623 496.895 136.452C501.312 134.243 505.879 133.139 510.596 133.139C510.746 133.139 510.896 133.139 511.045 133.139C515.538 133.139 519.131 133.682 521.827 134.768C527.292 136.939 530.418 141.543 531.204 148.581C531.279 149.292 531.316 154.009 531.316 162.731C531.316 171.416 531.541 176.507 531.99 178.005C532.477 179.502 533.75 180.607 535.809 181.318C537.905 182.029 538.953 182.703 538.953 183.339C538.953 184.687 538.279 185.716 536.932 186.428C534.236 187.85 531.578 188.562 528.958 188.562C526.375 188.562 524.447 187.963 523.174 186.765C520.891 184.631 519.674 183.564 519.524 183.564C519.375 183.564 517.26 184.519 513.179 186.428C509.099 188.299 505.524 189.235 502.454 189.235C497.85 189.235 494.237 187.963 491.617 185.417C488.996 182.871 487.686 179.783 487.686 176.152V174.748C487.686 170.855 489.371 167.43 492.74 164.472C496.109 161.515 502.173 159.213 510.933 157.565C514.115 156.966 516.118 156.405 516.941 155.881C518.589 154.833 519.412 152.699 519.412 149.479C519.412 146.26 518.551 143.789 516.829 142.067C515.107 140.345 512.805 139.484 509.922 139.484C507.04 139.484 504.251 141.169 501.556 144.538C498.898 147.87 496.465 149.536 494.256 149.536C491.635 149.536 490.325 147.645 490.325 143.864ZM568.602 115.9C568.602 117.548 567.89 119.082 566.468 120.505C565.083 121.89 563.698 122.583 562.312 122.583C562.013 122.657 561.77 122.695 561.583 122.695L560.347 122.807C558.475 122.807 556.791 122.189 555.293 120.954C553.833 119.719 553.104 118.128 553.104 116.181V115.17C553.104 113.224 553.871 111.595 555.406 110.285C556.978 108.938 558.775 108.264 560.796 108.264H561.077L562.986 108.488C564.147 108.488 565.345 109.125 566.58 110.397C567.853 111.633 568.489 112.887 568.489 114.16L568.602 114.665V115.9ZM550.745 140.944C548.799 140.008 547.825 139.129 547.825 138.305C547.825 137.482 548.218 136.826 549.004 136.34C551.737 134.693 556.061 133.869 561.976 133.869H563.604C565.625 133.869 566.767 134.805 567.029 136.677C567.179 137.688 567.254 144.501 567.254 157.116C567.254 169.694 567.516 176.919 568.04 178.791C568.564 180.625 569.818 182.048 571.802 183.059C573.786 184.032 574.778 185.024 574.778 186.035C574.778 187.457 570.136 188.168 560.853 188.168L559.168 188.225H552.317C549.585 188.225 548.218 187.551 548.218 186.203C548.218 185.08 549.042 183.994 550.689 182.946C552.374 181.898 553.534 180.738 554.17 179.465C554.882 178.08 555.237 174.842 555.237 169.75L555.293 167.954V166.213L555.35 163.574V161.833L555.406 160.092C555.406 151.22 555.106 146.054 554.507 144.594C553.946 143.097 552.692 141.88 550.745 140.944ZM591.792 187.551C586.514 187.551 583.875 186.802 583.875 185.305C583.875 184.069 584.568 183.059 585.953 182.272C588.461 180.85 589.921 179.577 590.333 178.454C590.744 177.294 590.95 171.884 590.95 162.226C590.95 152.53 590.651 146.859 590.052 145.212C589.49 143.527 588.442 142.142 586.907 141.057C585.372 139.971 584.605 139.091 584.605 138.417C584.605 137.744 585.11 137.107 586.121 136.508C588.479 135.123 592.223 134.431 597.352 134.431C598.886 134.431 600.084 134.955 600.945 136.003C601.245 136.377 601.657 137.201 602.181 138.474C602.742 139.709 603.117 140.327 603.304 140.327C604.015 140.289 605.119 139.784 606.617 138.811C611.783 135.329 616.462 133.588 620.655 133.588H620.767H622.564C625.596 133.588 628.329 134.337 630.762 135.834C633.195 137.332 635.067 139.578 636.377 142.573C637.725 145.568 638.399 152.1 638.399 162.17C638.399 172.202 638.605 177.818 639.017 179.016C639.466 180.176 640.682 181.262 642.667 182.272C644.688 183.283 645.699 184.275 645.699 185.249C645.699 186.933 640.383 187.775 629.751 187.775H628.067C624.698 187.775 623.013 186.971 623.013 185.361C623.013 185.024 623.425 184.219 624.249 182.946C625.072 181.636 625.634 180.195 625.933 178.623C626.233 177.05 626.382 171.884 626.382 163.125C626.382 154.327 625.84 148.675 624.754 146.167C623.257 142.722 620.767 141 617.286 141C614.74 141 612.269 141.599 609.874 142.797C607.515 143.958 605.793 145.624 604.708 147.795C603.659 149.929 603.135 155.076 603.135 163.237C603.135 171.36 603.36 176.283 603.809 178.005C604.258 179.689 604.801 181.056 605.438 182.104L607.515 185.473C607.515 186.933 604.576 187.663 598.699 187.663L595.274 187.551H591.792ZM704.715 123.762V142.573C704.715 145.306 705.014 146.953 705.613 147.514C706.25 148.038 707.579 148.3 709.6 148.3H712.015C717.592 148.3 721.897 146.915 724.93 144.145C727.962 141.337 729.478 137.669 729.478 133.139V130.837C729.478 126.195 727.981 122.526 724.986 119.831C722.028 117.098 718.154 115.732 713.362 115.732H709.881C707.522 115.732 706.062 116.125 705.501 116.911C704.977 117.66 704.715 119.943 704.715 123.762ZM714.822 109.836C728.411 109.836 737.152 113.991 741.045 122.302C742.094 124.548 742.618 127.355 742.618 130.725C742.618 137.014 739.791 142.498 734.139 147.177C730.994 149.798 729.422 151.988 729.422 153.747C729.422 154.271 731.275 157.678 734.981 163.967C738.687 170.218 741.382 174.411 743.067 176.545C744.789 178.679 746.923 180.27 749.468 181.318C752.014 182.329 753.287 183.283 753.287 184.182C753.287 186.84 750.385 188.168 744.583 188.168C740.353 188.168 737.19 187.139 735.093 185.08C733.633 183.658 730.713 179.034 726.333 171.21C721.954 163.387 719.483 159.119 718.921 158.408C716.937 155.9 713.924 154.646 709.881 154.646C708.159 154.646 706.98 155.432 706.343 157.004C705.707 158.539 705.389 162.001 705.389 167.392C705.389 172.783 705.744 176.358 706.456 178.117C707.204 179.877 708.327 181.561 709.825 183.171C711.322 184.743 712.071 185.66 712.071 185.922C712.071 187.195 709.694 187.832 704.939 187.832L703.03 187.775L701.177 187.663C700.354 187.626 699.081 187.607 697.359 187.607C688.562 187.607 684.163 186.858 684.163 185.361C684.163 183.863 684.781 182.74 686.016 181.992C689.161 180.045 690.845 178.866 691.07 178.454C691.931 176.882 692.361 172.558 692.361 165.483L692.474 161.552L692.53 157.622C692.53 156.311 692.53 155.001 692.53 153.691L692.417 147.851C692.417 132.615 692.043 123.706 691.294 121.123C690.583 118.54 689.273 116.687 687.364 115.563C685.492 114.403 684.556 113.392 684.556 112.531C684.556 111.034 687.551 110.285 693.541 110.285L695.45 110.229C696.76 110.192 698.051 110.173 699.324 110.173L710.892 109.836H714.822ZM817.244 181.879C818.891 183.152 819.715 184.069 819.715 184.631C819.715 185.155 819.434 185.66 818.873 186.147C817.263 187.607 813.819 188.337 808.541 188.337C806.819 188.337 805.471 188.056 804.498 187.495C803.562 186.896 802.719 185.829 801.971 184.294C801.259 182.759 800.66 181.992 800.174 181.992C799.687 182.029 798.602 182.647 796.917 183.845C792.2 187.251 787.689 188.955 783.384 188.955C783.347 188.955 783.291 188.955 783.216 188.955H781.531C775.354 188.955 770.881 186.334 768.111 181.093C766.688 178.361 765.958 171.678 765.921 161.047C765.921 150.378 765.752 144.519 765.416 143.471C765.079 142.386 763.881 141.375 761.822 140.439C759.8 139.466 758.79 138.717 758.79 138.193C758.79 136.808 759.445 135.909 760.755 135.498C763.675 134.562 767.4 134.094 771.929 134.094C774.55 134.094 776.215 135.161 776.927 137.294C777.863 140.027 778.331 146.56 778.331 156.892C778.331 167.186 778.78 173.438 779.678 175.646C781.213 179.427 784.002 181.318 788.045 181.318C790.141 181.318 792.219 180.775 794.278 179.689C796.374 178.604 798.003 177.144 799.163 175.31C800.324 173.475 800.904 168.44 800.904 160.205C800.904 151.931 800.623 146.728 800.062 144.594C799.537 142.46 798.714 140.795 797.591 139.597C796.468 138.361 795.906 137.388 795.906 136.677C795.906 135.03 800.305 134.206 809.102 134.206C810.936 134.206 812.134 134.618 812.696 135.441C813.257 136.228 813.538 137.688 813.538 139.821L813.37 143.134L813.089 158.071C813.089 167.804 813.37 173.887 813.931 176.32C814.493 178.716 815.597 180.569 817.244 181.879ZM828.643 186.035C828.643 185.249 829.485 184.238 831.17 183.002C832.892 181.767 834.052 179.839 834.651 177.219C835.25 174.561 835.55 164.528 835.55 147.121C835.55 129.714 835.344 119.85 834.932 117.529C834.558 115.208 833.603 113.542 832.068 112.531C829.598 110.922 828.362 109.93 828.362 109.555V108.881C828.362 108.245 828.905 107.683 829.991 107.197C833.36 105.737 837.852 105.007 843.467 105.007H844.59C846.5 105.007 847.604 106.298 847.903 108.881C847.941 109.218 847.959 112.045 847.959 117.36V129.433L847.903 131.735V135.273L847.847 137.575C847.847 137.575 847.847 143.509 847.847 155.375C847.847 166.456 848.016 173.326 848.353 175.983C848.727 178.604 849.569 180.513 850.879 181.711C851.029 181.823 851.815 182.31 853.238 183.171C854.66 184.032 855.372 184.912 855.372 185.81C855.372 187.12 853.051 187.775 848.409 187.775L846.106 187.888H843.804L834.595 188.056H833.416C830.234 188.056 828.643 187.382 828.643 186.035ZM899.451 151.501V149.76C899.451 146.99 898.459 144.501 896.475 142.292C894.491 140.046 892.058 138.923 889.175 138.923H888.108C887.584 138.998 887.229 139.035 887.042 139.035C884.421 139.035 881.932 140.533 879.573 143.527C877.252 146.522 876.092 149.723 876.092 153.129V153.859C876.092 155.057 876.803 155.656 878.226 155.656C878.787 155.769 879.087 155.825 879.124 155.825L880.416 155.881H880.752L881.146 155.825L891.983 155.207L894.004 154.982C897.636 154.982 899.451 153.822 899.451 151.501ZM876.092 166.381C876.092 170.649 877.701 174.224 880.921 177.106C884.14 179.989 888.221 181.43 893.162 181.43C895.146 181.43 896.943 181.149 898.553 180.588C900.2 179.989 901.978 179.278 903.887 178.454C905.834 177.631 907.05 177.219 907.537 177.219C909.035 177.219 909.783 178.024 909.783 179.633C909.783 181.805 907.013 184.125 901.473 186.596C897.879 188.206 894.023 189.011 889.905 189.011H888.67C881.632 189.011 875.792 186.877 871.15 182.609C868.642 180.288 866.696 177.331 865.311 173.737C863.925 170.106 863.233 166.213 863.233 162.058L863.289 160.766V159.475C863.289 155.881 864.113 152.343 865.76 148.862C867.444 145.38 869.447 142.517 871.768 140.271C876.672 135.554 882.493 133.177 889.231 133.139C899.414 133.139 906.189 137.107 909.559 145.043C910.607 147.552 911.131 149.854 911.131 151.95V153.073C911.131 155.656 910.064 157.397 907.93 158.295C905.796 159.156 900.761 159.868 892.825 160.429C884.889 160.991 880.584 161.365 879.91 161.552C877.365 162.189 876.092 163.798 876.092 166.381Z" fill="white"/>
</svg>
