<?xml version="1.0" standalone="no"?>
<!DOCTYPE svg PUBLIC "-//W3C//DTD SVG 20010904//EN"
 "http://www.w3.org/TR/2001/REC-SVG-20010904/DTD/svg10.dtd">
<svg version="1.0" xmlns="http://www.w3.org/2000/svg"
 width="512.000000pt" height="512.000000pt" viewBox="0 0 512.000000 512.000000"
 preserveAspectRatio="xMidYMid meet">
<metadata>
Created by potrace 1.14, written by Peter Selinger 2001-2017
</metadata>
<g transform="translate(0.000000,512.000000) scale(0.100000,-0.100000)"
fill="#000000" stroke="none">
<path d="M2467 5074 c-1 -1 -48 -4 -104 -8 -57 -4 -108 -8 -115 -11 -7 -2 -33
-6 -58 -9 -25 -2 -81 -12 -125 -21 -44 -10 -89 -19 -101 -21 -43 -8 -242 -72
-334 -108 -201 -78 -458 -228 -640 -373 -95 -75 -280 -256 -357 -348 -59 -71
-203 -270 -203 -281 0 -4 -6 -15 -14 -23 -26 -30 -145 -265 -190 -378 -39 -99
-80 -216 -91 -263 -2 -8 -12 -53 -23 -100 -66 -279 -83 -608 -46 -895 43 -336
167 -693 341 -976 55 -90 171 -256 209 -299 125 -143 183 -202 289 -297 257
-227 595 -415 925 -514 103 -31 258 -67 320 -75 19 -3 46 -7 60 -9 75 -14 185
-20 350 -20 162 0 220 3 355 19 53 6 208 37 265 53 30 8 66 18 80 21 13 3 67
20 120 39 52 19 100 35 105 37 23 7 96 40 195 89 372 182 715 478 952 822 202
291 351 651 407 980 6 33 13 74 16 90 13 80 20 197 20 370 0 271 -12 362 -90
685 -23 96 -117 326 -189 466 -273 524 -709 928 -1249 1158 -148 63 -354 127
-480 150 -190 34 -299 46 -460 50 -75 1 -138 1 -140 0z m273 -139 c493 -33
966 -226 1366 -557 65 -53 254 -249 317 -328 61 -77 149 -201 170 -240 4 -8
13 -24 20 -35 144 -235 264 -563 302 -825 4 -24 8 -47 10 -50 1 -3 6 -45 11
-95 15 -159 10 -470 -10 -570 -2 -11 -7 -42 -10 -70 -32 -226 -138 -529 -265
-760 -39 -71 -147 -242 -161 -255 -3 -3 -19 -24 -36 -47 -108 -149 -355 -386
-515 -494 -135 -91 -191 -125 -289 -174 -178 -90 -327 -146 -517 -194 -86 -22
-97 -24 -210 -41 -43 -7 -89 -14 -103 -16 -53 -9 -399 -11 -470 -3 -231 26
-379 57 -565 121 -494 169 -927 507 -1219 952 -103 156 -181 316 -262 531 -4
11 -8 25 -10 30 -1 6 -14 49 -28 97 -29 102 -62 266 -71 358 -4 36 -9 76 -11
90 -6 32 -6 368 0 395 2 11 7 52 10 90 9 92 40 245 77 375 155 546 518 1032
1004 1345 246 159 605 300 860 339 26 4 104 17 130 22 11 2 72 7 135 10 63 4
116 7 117 8 3 2 131 -2 223 -9z"/>
<path d="M2409 4367 c-2 -3 -31 -7 -65 -10 -33 -3 -103 -15 -156 -26 -678
-141 -1213 -657 -1384 -1332 -13 -53 -26 -112 -29 -130 -2 -19 -8 -59 -12 -89
-10 -70 -10 -357 0 -435 32 -256 115 -497 245 -713 251 -418 643 -709 1112
-826 162 -40 295 -55 475 -51 158 4 192 7 290 26 28 5 59 11 70 13 11 2 47 11
80 20 33 9 68 19 77 21 9 2 25 8 35 13 10 6 21 10 26 11 4 0 23 8 43 16 20 8
38 15 39 15 14 0 178 84 248 128 148 91 251 175 377 307 258 271 423 621 474
1005 14 101 16 436 3 456 -3 5 -8 32 -11 59 -17 146 -97 389 -181 550 -271
520 -768 870 -1360 960 -48 7 -389 17 -396 12z m801 -617 c282 -81 494 -309
553 -595 14 -69 16 -226 3 -295 -16 -88 -59 -194 -113 -280 -44 -68 -1015
-1046 -1093 -1099 -135 -93 -263 -135 -440 -145 -8 0 -50 3 -94 7 -252 25
-491 191 -605 423 -129 260 -106 559 61 801 47 69 1015 1032 1081 1076 145 97
285 137 462 132 75 -2 134 -10 185 -25z"/>
<path d="M2861 3444 c-107 -28 -148 -60 -370 -281 -118 -117 -212 -215 -210
-217 2 -2 26 1 52 8 53 14 147 14 221 2 l48 -9 122 121 c66 66 137 128 156
138 51 27 162 25 216 -3 49 -26 98 -80 119 -130 21 -49 19 -139 -4 -188 -24
-53 -374 -406 -433 -436 -49 -25 -131 -30 -188 -11 -56 19 -125 89 -146 150
-20 56 -27 59 -77 38 -38 -16 -137 -108 -137 -127 0 -37 93 -160 163 -216 70
-56 211 -95 313 -87 160 12 200 38 447 283 114 113 221 226 237 251 45 70 71
161 72 250 0 43 -2 82 -5 87 -3 5 -9 24 -12 42 -9 52 -59 142 -106 193 -125
134 -307 188 -478 142z"/>
<path d="M2335 2909 c-22 -5 -69 -23 -105 -41 -55 -26 -99 -65 -276 -242 -134
-134 -221 -229 -238 -260 -153 -282 -5 -618 309 -703 43 -11 162 -10 217 3
113 27 150 54 376 277 116 116 212 215 212 220 0 4 -9 6 -19 2 -11 -3 -30 -8
-43 -11 -37 -9 -180 -5 -217 6 -33 9 -34 9 -156 -114 -133 -133 -170 -157
-248 -161 -134 -7 -259 106 -260 235 -1 104 10 120 216 329 211 212 251 241
343 241 99 0 208 -81 234 -175 12 -41 15 -44 39 -39 39 10 81 38 131 89 l45
46 -30 56 c-56 107 -172 201 -290 236 -58 16 -182 20 -240 6z"/>
</g>
</svg>
