<?xml version="1.0" standalone="no"?>
<!DOCTYPE svg PUBLIC "-//W3C//DTD SVG 20010904//EN"
 "http://www.w3.org/TR/2001/REC-SVG-20010904/DTD/svg10.dtd">
<svg version="1.0" xmlns="http://www.w3.org/2000/svg"
 width="512.000000pt" height="512.000000pt" viewBox="0 0 512.000000 512.000000"
 preserveAspectRatio="xMidYMid meet">
<metadata>
Created by potrace 1.14, written by Peter Selinger 2001-2017
</metadata>
<g transform="translate(0.000000,512.000000) scale(0.100000,-0.100000)"
fill="#000000" stroke="none">
<path d="M2390 5060 c-255 -17 -466 -65 -745 -171 -33 -12 -134 -60 -225 -106
-91 -45 -153 -73 -137 -62 32 24 35 39 7 32 -11 -3 -18 -8 -16 -12 3 -4 -4 -7
-15 -7 -10 0 -19 1 -19 3 0 2 179 103 235 132 22 11 36 20 31 21 -18 0 -242
-122 -341 -187 -530 -346 -912 -875 -1074 -1484 -111 -416 -113 -883 -6 -1300
201 -782 778 -1438 1525 -1732 123 -49 340 -117 368 -116 9 0 -29 13 -85 29
-312 90 -655 271 -918 485 -121 98 -300 278 -394 395 -116 143 -281 393 -281
424 0 8 -5 16 -11 18 -6 2 -12 15 -12 30 -1 14 -5 24 -9 21 -14 -8 -8 18 7 33
13 13 17 9 39 -33 261 -515 761 -982 1296 -1211 735 -315 1503 -260 2210 157
52 30 98 55 103 53 4 -1 7 3 7 9 0 6 9 8 23 4 14 -4 18 -3 9 3 -10 7 -9 12 4
23 10 8 15 9 11 2 -9 -14 12 -30 22 -17 3 5 13 10 21 12 8 1 2 -9 -15 -23 -16
-14 -36 -23 -42 -20 -7 2 -12 0 -10 -6 3 -13 -175 -125 -298 -187 -202 -101
-364 -157 -660 -225 -17 -4 -17 -5 -2 -6 31 -2 227 46 346 84 238 77 431 170
641 310 622 414 1026 1073 1121 1830 18 145 16 473 -5 625 -101 744 -503 1388
-1125 1802 -119 78 -399 229 -426 228 -6 -1 46 -29 115 -63 425 -212 778 -527
1043 -933 106 -162 265 -497 253 -531 -3 -8 -2 -12 3 -9 5 3 14 -13 20 -37 6
-23 22 -82 35 -132 29 -111 38 -165 25 -165 -5 0 -9 8 -9 18 0 13 -2 14 -9 4
-9 -14 -3 -64 9 -72 4 -3 4 -25 0 -50 -7 -43 -8 -44 -9 -9 0 19 -10 78 -21
130 -11 51 -18 100 -15 107 3 7 1 11 -4 7 -5 -3 -12 9 -16 27 -23 116 -127
376 -213 533 -156 284 -415 587 -672 787 -232 180 -557 349 -830 432 -255 77
-582 113 -860 96z m435 -455 c239 -34 427 -91 640 -195 235 -114 401 -236 585
-426 220 -229 365 -465 460 -752 173 -523 132 -1107 -113 -1587 -360 -705
-1068 -1145 -1843 -1145 -307 0 -576 61 -859 195 -432 204 -788 552 -991 969
-209 429 -267 902 -168 1356 79 358 258 699 499 949 333 346 749 561 1225 635
117 19 440 19 565 1z m2235 -1575 c0 -5 -5 -10 -11 -10 -5 0 -7 5 -4 10 3 6 8
10 11 10 2 0 4 -4 4 -10z m-3 -52 c-3 -7 -5 -2 -5 12 0 14 2 19 5 13 2 -7 2
-19 0 -25z m13 -30 c0 -4 -4 -8 -9 -8 -6 0 -12 4 -15 8 -3 5 1 9 9 9 8 0 15
-4 15 -9z m-25 -58 c-4 -17 -9 -29 -12 -26 -3 2 -2 19 2 36 4 17 9 29 12 26 3
-2 2 -19 -2 -36z m32 8 c-3 -8 -6 -5 -6 6 -1 11 2 17 5 13 3 -3 4 -12 1 -19z
m-30 -175 c-2 -16 -4 -3 -4 27 0 30 2 43 4 28 2 -16 2 -40 0 -55z m50 -205
c-2 -35 -3 -7 -3 62 0 69 1 97 3 63 2 -35 2 -91 0 -125z m-50 -120 c-2 -13 -4
-5 -4 17 -1 22 1 32 4 23 2 -10 2 -28 0 -40z m-4784 -848 c3 -11 1 -18 -4 -14
-5 3 -9 12 -9 20 0 20 7 17 13 -6z"/>
<path d="M3065 4009 c-161 -18 -296 -87 -457 -233 -234 -212 -367 -366 -415
-481 -39 -92 -62 -250 -47 -324 l6 -31 47 39 c142 118 279 159 426 128 96 -21
151 -46 219 -102 54 -43 62 -47 98 -41 l40 6 -28 -49 c-25 -46 -30 -51 -72
-57 -44 -7 -59 -20 -354 -312 -169 -168 -308 -308 -308 -313 0 -12 68 -48 133
-70 50 -17 78 -20 147 -16 133 7 183 39 413 265 115 113 159 182 172 272 7 42
20 58 179 220 184 187 196 206 196 302 0 110 -59 207 -161 263 -48 26 -64 30
-139 30 -76 0 -90 -3 -137 -30 -29 -16 -113 -89 -186 -162 l-133 -132 -60 6
c-32 3 -61 7 -63 9 -8 7 48 69 186 205 162 159 213 192 321 207 239 33 440
-112 472 -340 23 -159 -11 -225 -219 -438 -94 -96 -164 -175 -167 -190 -20
-96 -82 -197 -175 -287 -35 -34 -60 -65 -56 -69 4 -4 57 -10 117 -12 126 -5
195 9 295 62 71 37 366 319 449 431 119 157 162 292 153 475 -6 129 -24 199
-81 315 -154 312 -475 492 -811 454z"/>
<path d="M2459 3000 c-81 -14 -131 -44 -244 -147 -168 -152 -218 -228 -245
-364 -10 -54 -15 -60 -140 -182 -161 -157 -175 -182 -175 -302 0 -73 4 -98 22
-131 55 -103 134 -154 249 -162 103 -7 152 19 297 152 l116 107 73 -3 73 -3
-138 -135 c-76 -74 -165 -152 -199 -172 -193 -118 -460 -43 -559 157 -42 85
-56 175 -41 256 21 111 53 162 193 299 116 113 129 130 139 175 24 101 87 209
173 294 l80 80 -38 7 c-20 3 -80 4 -133 2 -181 -10 -262 -58 -508 -303 -181
-180 -222 -235 -267 -362 -123 -343 15 -736 331 -944 141 -93 306 -137 470
-126 113 8 188 28 287 76 89 44 139 84 300 240 229 221 292 308 330 456 17 63
23 218 10 273 l-7 33 -77 -74 c-132 -126 -263 -172 -425 -149 -87 13 -193 58
-254 109 l-33 28 21 90 c18 77 26 94 53 115 18 13 146 137 285 275 139 137
260 254 268 258 23 13 1 33 -59 56 -63 23 -165 33 -228 21z"/>
<path d="M1550 4910 c-8 -5 -10 -10 -5 -10 6 0 17 5 25 10 8 5 11 10 5 10 -5
0 -17 -5 -25 -10z"/>
<path d="M2008 63 c7 -3 16 -2 19 1 4 3 -2 6 -13 5 -11 0 -14 -3 -6 -6z"/>
<path d="M2048 53 c6 -2 18 -2 25 0 6 3 1 5 -13 5 -14 0 -19 -2 -12 -5z"/>
<path d="M2108 43 c7 -3 16 -2 19 1 4 3 -2 6 -13 5 -11 0 -14 -3 -6 -6z"/>
<path d="M2163 33 c9 -2 23 -2 30 0 6 3 -1 5 -18 5 -16 0 -22 -2 -12 -5z"/>
<path d="M2933 33 c9 -2 23 -2 30 0 6 3 -1 5 -18 5 -16 0 -22 -2 -12 -5z"/>
<path d="M2238 23 c6 -2 18 -2 25 0 6 3 1 5 -13 5 -14 0 -19 -2 -12 -5z"/>
<path d="M2328 13 c12 -2 30 -2 40 0 9 3 -1 5 -23 4 -22 0 -30 -2 -17 -4z"/>
<path d="M2778 13 c6 -2 18 -2 25 0 6 3 1 5 -13 5 -14 0 -19 -2 -12 -5z"/>
<path d="M2528 3 c18 -2 45 -2 60 0 15 2 0 4 -33 4 -33 0 -45 -2 -27 -4z"/>
</g>
</svg>
